<?xml version="1.0" standalone="no"?>
<!DOCTYPE svg PUBLIC "-//W3C//DTD SVG 1.1//EN" "http://www.w3.org/Graphics/SVG/1.1/DTD/svg11.dtd" >
<svg xmlns="http://www.w3.org/2000/svg" xmlns:xlink="http://www.w3.org/1999/xlink" version="1.1">
<metadata>
Created by FontForge 20190801 at Thu Sep 28 16:04:48 2017
 By Jimmy Wärting
Copyright \(c\) 2017 Newlyn Works Limited. All rights reserved.
</metadata>
<defs>
<font id="MTNBrighterSans-Light" horiz-adv-x="610" >
  <font-face 
    font-family="MTN Brighter Sans Light"
    font-weight="300"
    font-stretch="normal"
    units-per-em="1000"
    panose-1="0 0 4 0 0 0 0 0 0 0"
    ascent="800"
    descent="-200"
    x-height="473"
    cap-height="658"
    bbox="-121 -230 2524 899"
    underline-thickness="50"
    underline-position="-100"
    stemh="60"
    stemv="69"
    unicode-range="U+000D-25CA"
  />
<missing-glyph horiz-adv-x="724" 
d="M137 0c-14 0 -26 10 -26 26v607c0 16 12 25 26 25h450c14 0 26 -10 26 -26v-607c0 -16 -12 -25 -26 -25h-450zM558 56v546h-392v-546h392z" />
    <glyph glyph-name="Y_e_l_l_o" unicode="Y&#x27;ello" horiz-adv-x="2564" 
d="M1539 674l179 35l-126 -709h-172zM1793 674l179 35l-126 -709h-172zM512 658h175l-221 -387c-84 -147 -156 -218 -293 -288l-104 114c63 26 129 68 182 119l-150 442h185l78 -279zM934 656l-13 -75c-20 -117 -83 -205 -151 -262l-96 65c17 24 56 78 78 197l14 75h168z
M1396 317c0 -49 -17 -92 -34 -123h-332c10 -54 46 -83 120 -83c57 0 121 17 166 41l49 -92c-63 -46 -153 -82 -249 -82c-154 0 -259 91 -259 230c0 162 145 296 319 296c132 0 220 -77 220 -187zM2268 504c153 0 256 -96 256 -230c0 -157 -137 -296 -321 -296
c-151 0 -256 95 -256 232c0 155 135 294 321 294zM1247 307v8c0 44 -33 73 -83 73c-53 0 -97 -31 -119 -81h202zM2212 107c78 0 132 70 132 164c0 70 -29 106 -87 106c-78 0 -130 -70 -130 -163c0 -70 29 -107 85 -107z" />
    <glyph glyph-name=".notdef" horiz-adv-x="724" 
d="M137 0c-14 0 -26 10 -26 26v607c0 16 12 25 26 25h450c14 0 26 -10 26 -26v-607c0 -16 -12 -25 -26 -25h-450zM558 56v546h-392v-546h392z" />
    <glyph glyph-name="NULL" horiz-adv-x="0" 
 />
    <glyph glyph-name="CR" unicode="&#xd;" horiz-adv-x="273" 
 />
    <glyph glyph-name="space" unicode=" " horiz-adv-x="273" 
 />
    <glyph glyph-name="uni00A0" unicode="&#xa0;" horiz-adv-x="273" 
 />
    <glyph glyph-name="A" unicode="A" horiz-adv-x="695" 
d="M590 0l-78 180h-334l-78 -180h-72l287 658h65l287 -658h-77zM205 243h280l-140 324z" />
    <glyph glyph-name="B" unicode="B" horiz-adv-x="715" 
d="M522 337c80 -23 125 -81 125 -159c0 -117 -95 -178 -229 -178h-306v658h279c149 0 233 -62 233 -170c0 -78 -40 -126 -102 -151zM384 595h-200v-231h217c89 0 148 39 148 115c0 74 -52 116 -165 116zM405 63c111 0 167 43 167 119c0 73 -51 121 -155 121h-233v-240h221z
" />
    <glyph glyph-name="C" unicode="C" horiz-adv-x="680" 
d="M385 55c86 0 164 39 228 101l36 -47c-73 -76 -169 -122 -272 -122c-188 0 -316 136 -316 336c0 206 133 348 325 348c82 0 161 -26 221 -70v-80c-60 55 -137 84 -219 84c-149 0 -250 -112 -250 -276c0 -163 100 -274 247 -274z" />
    <glyph glyph-name="D" unicode="D" horiz-adv-x="749" 
d="M112 0v658h244c192 0 333 -135 333 -322c0 -194 -143 -336 -332 -336h-245zM185 64h173c145 0 254 110 254 264c0 155 -111 266 -260 266h-167v-530z" />
    <glyph glyph-name="E" unicode="E" horiz-adv-x="645" 
d="M185 63h406v-63h-479v658h470v-63h-397v-232h344v-63h-344v-237z" />
    <glyph glyph-name="F" unicode="F" horiz-adv-x="613" 
d="M112 0v658h466v-63h-393v-254h342v-63h-342v-278h-73z" />
    <glyph glyph-name="G" unicode="G" horiz-adv-x="721" 
d="M582 328h68v-265c-72 -47 -167 -76 -261 -76c-195 0 -328 136 -328 338c0 203 138 346 338 346c84 0 173 -31 231 -78v-80c-61 56 -142 92 -227 92c-158 0 -265 -112 -265 -277c0 -163 103 -276 256 -276c66 0 132 16 188 47v229z" />
    <glyph glyph-name="H" unicode="H" horiz-adv-x="787" 
d="M112 0v658h73v-296l417 1v295h73v-658h-73v299h-417v-299h-73z" />
    <glyph glyph-name="I" unicode="I" horiz-adv-x="296" 
d="M112 0v658l73 -1v-657h-73z" />
    <glyph glyph-name="J" unicode="J" horiz-adv-x="520" 
d="M229 -13c-81 0 -163 43 -213 105l39 43c42 -47 106 -82 169 -82c83 0 120 45 120 145v460h73v-466c0 -134 -64 -205 -188 -205z" />
    <glyph glyph-name="K" unicode="K" horiz-adv-x="695" 
d="M586 0l-239 347l-162 -157v-190h-73v658h73v-383l385 383h97l-269 -261l275 -397h-87z" />
    <glyph glyph-name="L" unicode="L" horiz-adv-x="580" 
d="M112 658h73v-594h377v-64h-450v658z" />
    <glyph glyph-name="M" unicode="M" horiz-adv-x="854" 
d="M675 658h67v-658h-72v538l-218 -320h-49l-224 320v-538h-67v658h67l253 -359z" />
    <glyph glyph-name="N" unicode="N" horiz-adv-x="785" 
d="M606 658h67v-658h-63l-431 545v-545h-67v658h67l427 -540v540z" />
    <glyph glyph-name="O" unicode="O" horiz-adv-x="784" 
d="M388 -13c-190 0 -327 143 -327 336c0 200 140 348 336 348c190 0 327 -142 327 -335c0 -201 -141 -349 -336 -349zM394 51c148 0 253 118 253 277c0 160 -107 279 -257 279c-147 0 -253 -118 -253 -277c0 -160 108 -279 257 -279z" />
    <glyph glyph-name="P" unicode="P" horiz-adv-x="671" 
d="M375 658c164 0 254 -74 254 -205s-92 -208 -258 -208h-186v-245h-73v658h263zM370 308c125 0 183 53 183 144c0 92 -58 143 -183 143h-185v-287h185z" />
    <glyph glyph-name="Q" unicode="Q" horiz-adv-x="796" 
d="M761 -18l-45 -47l-124 118c-55 -42 -125 -66 -204 -66c-190 0 -327 143 -327 336c0 200 140 348 336 348c190 0 327 -142 327 -335c0 -94 -31 -177 -84 -238zM394 51c58 0 109 18 150 49l-94 90l45 46l94 -90c37 48 58 111 58 182c0 160 -107 279 -257 279
c-147 0 -253 -118 -253 -277c0 -160 108 -279 257 -279z" />
    <glyph glyph-name="R" unicode="R" horiz-adv-x="711" 
d="M660 0h-86l-166 258c-8 -1 -17 -1 -26 -1h-197v-257h-73v658h283c152 0 243 -74 243 -195c0 -98 -60 -166 -155 -193zM185 320h198c111 0 179 50 179 139c0 88 -66 136 -173 136h-204v-275z" />
    <glyph glyph-name="S" unicode="S" horiz-adv-x="646" 
d="M335 -13c-114 0 -215 40 -288 105l33 53c71 -59 154 -94 255 -94c109 0 180 46 180 118c0 68 -42 92 -186 125c-186 43 -254 89 -254 182c0 118 109 195 259 195c86 0 171 -26 232 -66v-77c-66 52 -146 79 -229 79c-109 0 -188 -46 -188 -120c0 -63 49 -86 208 -124
c157 -38 232 -78 232 -185c0 -115 -101 -191 -254 -191z" />
    <glyph glyph-name="T" unicode="T" horiz-adv-x="601" 
d="M264 594h-246v64h565v-64h-246v-594h-73v594z" />
    <glyph glyph-name="U" unicode="U" horiz-adv-x="754" 
d="M377 -11c-175 0 -276 111 -276 270v399h73v-400c0 -127 79 -203 205 -203c128 0 206 76 206 203v400h68v-399c0 -159 -100 -270 -276 -270z" />
    <glyph glyph-name="V" unicode="V" horiz-adv-x="682" 
d="M581 658h73l-280 -658h-66l-280 658h78l238 -571z" />
    <glyph glyph-name="W" unicode="W" horiz-adv-x="934" 
d="M828 658h65l-200 -658h-61l-165 542l-164 -542h-62l-200 658h72l163 -562l163 562h62l166 -561z" />
    <glyph glyph-name="X" unicode="X" horiz-adv-x="642" 
d="M619 0h-88l-215 284l-211 -284h-82l253 337l-243 321h87l206 -271l201 271h82l-244 -323z" />
    <glyph glyph-name="Y" unicode="Y" horiz-adv-x="672" 
d="M563 658h80l-271 -379v-279h-72v279l-271 379h85l225 -321z" />
    <glyph glyph-name="Z" unicode="Z" horiz-adv-x="616" 
d="M138 63h433v-63h-525v59l421 536h-411v63h505v-57z" />
    <glyph glyph-name="Aacute" unicode="&#xc1;" horiz-adv-x="695" 
d="M467 835l-170 -125l-30 35l157 141zM590 0l-78 180h-334l-78 -180h-72l287 658h65l287 -658h-77zM205 243h280l-140 324z" />
    <glyph glyph-name="Acircumflex" unicode="&#xc2;" horiz-adv-x="695" 
d="M347 803l-117 -93l-30 34l125 124h44l125 -124l-31 -34zM590 0l-78 180h-334l-78 -180h-72l287 658h65l287 -658h-77zM205 243h280l-140 324z" />
    <glyph glyph-name="Adieresis" unicode="&#xc4;" horiz-adv-x="695" 
d="M268 742c-25 0 -44 21 -44 45s19 45 44 45s45 -21 45 -45s-20 -45 -45 -45zM426 742c-24 0 -44 21 -44 45s20 45 44 45c27 0 45 -21 45 -45s-18 -45 -45 -45zM590 0l-78 180h-334l-78 -180h-72l287 658h65l287 -658h-77zM205 243h280l-140 324z" />
    <glyph glyph-name="Agrave" unicode="&#xc0;" horiz-adv-x="695" 
d="M427 745l-29 -35l-171 125l43 51zM590 0l-78 180h-334l-78 -180h-72l287 658h65l287 -658h-77zM205 243h280l-140 324z" />
    <glyph glyph-name="Aring" unicode="&#xc5;" horiz-adv-x="695" 
d="M348 711c-53 0 -97 40 -97 94s46 94 99 94c54 0 96 -40 96 -94s-45 -94 -98 -94zM349 860c-31 0 -53 -24 -53 -55s22 -55 53 -55c32 0 51 23 51 55c0 31 -19 55 -51 55zM590 0l-78 180h-334l-78 -180h-72l287 658h65l287 -658h-77zM205 243h280l-140 324z" />
    <glyph glyph-name="Atilde" unicode="&#xc3;" horiz-adv-x="695" 
d="M285 796c-22 0 -36 -22 -43 -50l-41 16c6 38 28 87 81 87c51 0 89 -53 127 -53c21 0 35 21 42 50l41 -16c-6 -38 -27 -87 -78 -87c-52 0 -94 53 -129 53zM590 0l-78 180h-334l-78 -180h-72l287 658h65l287 -658h-77zM205 243h280l-140 324z" />
    <glyph glyph-name="AE" unicode="&#xc6;" horiz-adv-x="1042" 
d="M596 63h396v-63h-468v180h-301l-143 -180h-87l531 658h459v-63h-387v-232h306v-63h-306v-237zM274 244h250v315z" />
    <glyph glyph-name="Ccedilla" unicode="&#xc7;" horiz-adv-x="680" 
d="M377 -13h-15l-16 -37c11 2 22 3 34 3c45 0 79 -27 79 -70c0 -55 -45 -92 -119 -92c-39 0 -73 9 -93 20l14 39c16 -7 45 -17 79 -17c39 0 66 16 66 45c0 23 -20 35 -45 35c-20 0 -30 -2 -44 -7l-22 20l22 66c-154 26 -256 153 -256 331c0 206 133 348 325 348
c82 0 161 -26 221 -70v-80c-60 55 -137 84 -219 84c-149 0 -250 -112 -250 -276c0 -163 100 -274 247 -274c86 0 164 39 228 101l36 -47c-73 -76 -169 -122 -272 -122z" />
    <glyph glyph-name="Eth" unicode="&#xd0;" horiz-adv-x="778" 
d="M385 658c192 0 333 -135 333 -322c0 -194 -143 -336 -332 -336h-245v308h-123v63h123v287h244zM387 64c145 0 254 110 254 264c0 155 -111 266 -260 266h-167v-223h138v-63h-138v-244h173z" />
    <glyph glyph-name="Eacute" unicode="&#xc9;" horiz-adv-x="645" 
d="M288 710l-30 35l157 141l43 -51zM185 63h406v-63h-479v658h470v-63h-397v-232h344v-63h-344v-237z" />
    <glyph glyph-name="Ecircumflex" unicode="&#xca;" horiz-adv-x="645" 
d="M337 803l-117 -93l-30 34l125 124h44l125 -124l-31 -34zM185 63h406v-63h-479v658h470v-63h-397v-232h344v-63h-344v-237z" />
    <glyph glyph-name="Edieresis" unicode="&#xcb;" horiz-adv-x="645" 
d="M258 742c-25 0 -44 21 -44 45s19 45 44 45s45 -21 45 -45s-20 -45 -45 -45zM416 742c-24 0 -44 21 -44 45s20 45 44 45c27 0 45 -21 45 -45s-18 -45 -45 -45zM185 63h406v-63h-479v658h470v-63h-397v-232h344v-63h-344v-237z" />
    <glyph glyph-name="Egrave" unicode="&#xc8;" horiz-adv-x="645" 
d="M388 710l-171 125l43 51l157 -141zM185 63h406v-63h-479v658h470v-63h-397v-232h344v-63h-344v-237z" />
    <glyph glyph-name="Iacute" unicode="&#xcd;" horiz-adv-x="296" 
d="M98 710l-30 35l157 141l43 -51zM112 0v658l73 -1v-657h-73z" />
    <glyph glyph-name="Icircumflex" unicode="&#xce;" horiz-adv-x="296" 
d="M170 868l125 -124l-31 -34l-116 93l-117 -93l-30 34l125 124h44zM112 0v658l73 -1v-657h-73z" />
    <glyph glyph-name="Idieresis" unicode="&#xcf;" horiz-adv-x="296" 
d="M68 742c-25 0 -44 21 -44 45s19 45 44 45s45 -21 45 -45s-20 -45 -45 -45zM226 742c-24 0 -44 21 -44 45s20 45 44 45c27 0 45 -21 45 -45s-18 -45 -45 -45zM112 0v658l73 -1v-657h-73z" />
    <glyph glyph-name="Igrave" unicode="&#xcc;" horiz-adv-x="296" 
d="M199 710l-171 125l43 51l157 -141zM112 0v658l73 -1v-657h-73z" />
    <glyph glyph-name="Lslash" unicode="&#x141;" horiz-adv-x="606" 
d="M211 64h377v-64h-450v270l-96 -43l-26 59l122 54v318h73v-286l128 57l26 -59l-154 -68v-238z" />
    <glyph glyph-name="Ntilde" unicode="&#xd1;" horiz-adv-x="785" 
d="M335 796c-22 0 -36 -22 -43 -50l-41 16c6 38 28 87 81 87c51 0 89 -53 127 -53c21 0 35 21 42 50l41 -16c-6 -38 -27 -87 -78 -87c-52 0 -94 53 -129 53zM606 658h67v-658h-63l-431 545v-545h-67v658h67l427 -540v540z" />
    <glyph glyph-name="Oacute" unicode="&#xd3;" horiz-adv-x="784" 
d="M342 710l-30 35l157 141l43 -51zM388 -13c-190 0 -327 143 -327 336c0 200 140 348 336 348c190 0 327 -142 327 -335c0 -201 -141 -349 -336 -349zM394 51c148 0 253 118 253 277c0 160 -107 279 -257 279c-147 0 -253 -118 -253 -277c0 -160 108 -279 257 -279z" />
    <glyph glyph-name="Ocircumflex" unicode="&#xd4;" horiz-adv-x="784" 
d="M391 803l-117 -93l-30 34l125 124h44l125 -124l-31 -34zM397 671c190 0 327 -142 327 -335c0 -201 -141 -349 -336 -349c-190 0 -327 143 -327 336c0 200 140 348 336 348zM394 51c148 0 253 118 253 277c0 160 -107 279 -257 279c-147 0 -253 -118 -253 -277
c0 -160 108 -279 257 -279z" />
    <glyph glyph-name="Odieresis" unicode="&#xd6;" horiz-adv-x="784" 
d="M312 742c-25 0 -44 21 -44 45s19 45 44 45s45 -21 45 -45s-20 -45 -45 -45zM470 742c-24 0 -44 21 -44 45s20 45 44 45c27 0 45 -21 45 -45s-18 -45 -45 -45zM388 -13c-190 0 -327 143 -327 336c0 200 140 348 336 348c190 0 327 -142 327 -335
c0 -201 -141 -349 -336 -349zM394 51c148 0 253 118 253 277c0 160 -107 279 -257 279c-147 0 -253 -118 -253 -277c0 -160 108 -279 257 -279z" />
    <glyph glyph-name="Ograve" unicode="&#xd2;" horiz-adv-x="784" 
d="M442 710l-171 125l43 51l157 -141zM388 -13c-190 0 -327 143 -327 336c0 200 140 348 336 348c190 0 327 -142 327 -335c0 -201 -141 -349 -336 -349zM394 51c148 0 253 118 253 277c0 160 -107 279 -257 279c-147 0 -253 -118 -253 -277c0 -160 108 -279 257 -279z" />
    <glyph glyph-name="Oslash" unicode="&#xd8;" horiz-adv-x="798" 
d="M736 628l-76 -77c44 -57 70 -131 70 -215c0 -201 -140 -349 -335 -349c-85 0 -159 28 -215 76l-75 -76l-44 44l76 78c-44 57 -70 131 -70 214c0 200 141 348 336 348c84 0 158 -28 214 -75l74 76zM397 608c-148 0 -255 -118 -255 -278c0 -66 18 -124 49 -170l377 383
c-44 41 -103 65 -171 65zM401 50c148 0 254 117 254 278c0 66 -18 124 -49 171l-377 -383c44 -42 104 -66 172 -66z" />
    <glyph glyph-name="Otilde" unicode="&#xd5;" horiz-adv-x="784" 
d="M287 746l-41 16c6 38 28 87 81 87c51 0 89 -53 127 -53c21 0 35 21 42 50l41 -16c-6 -38 -27 -87 -78 -87c-52 0 -94 53 -129 53c-22 0 -36 -22 -43 -50zM388 -13c-190 0 -327 143 -327 336c0 200 140 348 336 348c190 0 327 -142 327 -335c0 -201 -141 -349 -336 -349z
M394 51c148 0 253 118 253 277c0 160 -107 279 -257 279c-147 0 -253 -118 -253 -277c0 -160 108 -279 257 -279z" />
    <glyph glyph-name="OE" unicode="&#x152;" horiz-adv-x="1051" 
d="M997 63v-63h-491c-33 -8 -68 -13 -105 -13c-187 0 -341 138 -341 336c0 197 154 348 349 348c38 0 73 -5 107 -13h472v-63h-377v-232h324v-63h-324v-237h386zM136 330c0 -158 119 -279 271 -279c49 0 94 9 131 26v503c-39 17 -85 27 -135 27c-152 0 -267 -122 -267 -277z
" />
    <glyph glyph-name="Thorn" unicode="&#xde;" horiz-adv-x="666" 
d="M345 543c164 0 265 -77 265 -206c0 -130 -101 -206 -269 -206h-156v-131h-73v658h73v-115h160zM338 195c130 0 196 51 196 143c0 89 -66 141 -193 141h-156v-284h153z" />
    <glyph glyph-name="Scaron" unicode="&#x160;" horiz-adv-x="646" 
d="M351 731h-44l-125 124l31 34l116 -93l117 93l30 -34zM357 363c157 -38 232 -78 232 -185c0 -115 -101 -191 -254 -191c-114 0 -215 40 -288 105l33 53c71 -59 154 -94 255 -94c109 0 180 46 180 118c0 68 -42 92 -186 125c-186 43 -254 89 -254 182
c0 118 109 195 259 195c86 0 171 -26 232 -66v-77c-66 52 -146 79 -229 79c-109 0 -188 -46 -188 -120c0 -63 49 -86 208 -124z" />
    <glyph glyph-name="Uacute" unicode="&#xda;" horiz-adv-x="754" 
d="M329 710l-30 35l157 141l43 -51zM377 -11c-175 0 -276 111 -276 270v399h73v-400c0 -127 79 -203 205 -203c128 0 206 76 206 203v400h68v-399c0 -159 -100 -270 -276 -270z" />
    <glyph glyph-name="Ucircumflex" unicode="&#xdb;" horiz-adv-x="754" 
d="M378 803l-117 -93l-30 34l125 124h44l125 -124l-31 -34zM585 658h68v-399c0 -159 -100 -270 -276 -270c-175 0 -276 111 -276 270v399h73v-400c0 -127 79 -203 205 -203c128 0 206 76 206 203v400z" />
    <glyph glyph-name="Udieresis" unicode="&#xdc;" horiz-adv-x="754" 
d="M299 742c-25 0 -44 21 -44 45s19 45 44 45s45 -21 45 -45s-20 -45 -45 -45zM457 742c-24 0 -44 21 -44 45s20 45 44 45c27 0 45 -21 45 -45s-18 -45 -45 -45zM377 -11c-175 0 -276 111 -276 270v399h73v-400c0 -127 79 -203 205 -203c128 0 206 76 206 203v400h68v-399
c0 -159 -100 -270 -276 -270z" />
    <glyph glyph-name="Ugrave" unicode="&#xd9;" horiz-adv-x="754" 
d="M430 710l-171 125l43 51l157 -141zM377 -11c-175 0 -276 111 -276 270v399h73v-400c0 -127 79 -203 205 -203c128 0 206 76 206 203v400h68v-399c0 -159 -100 -270 -276 -270z" />
    <glyph glyph-name="Yacute" unicode="&#xdd;" horiz-adv-x="672" 
d="M458 835l-170 -125l-30 35l157 141zM563 658h80l-271 -379v-279h-72v279l-271 379h85l225 -321z" />
    <glyph glyph-name="Ydieresis" unicode="&#x178;" horiz-adv-x="672" 
d="M258 742c-25 0 -44 21 -44 45s19 45 44 45s45 -21 45 -45s-20 -45 -45 -45zM416 742c-24 0 -44 21 -44 45s20 45 44 45c27 0 45 -21 45 -45s-18 -45 -45 -45zM563 658h80l-271 -379v-279h-72v279l-271 379h85l225 -321z" />
    <glyph glyph-name="Zcaron" unicode="&#x17d;" horiz-adv-x="616" 
d="M329 726h-44l-125 124l31 34l116 -93l117 93l30 -34zM138 63h433v-63h-525v59l421 536h-411v63h505v-57z" />
    <glyph glyph-name="a" unicode="a" horiz-adv-x="611" 
d="M449 466l70 18v-484h-69v69c-39 -42 -103 -79 -181 -79c-117 0 -219 87 -219 232c0 152 113 260 256 260c48 0 94 -12 143 -35v19zM285 51c62 0 124 31 164 81v244c-51 33 -97 47 -142 47c-106 0 -184 -78 -184 -195c0 -106 66 -177 162 -177z" />
    <glyph glyph-name="b" unicode="b" horiz-adv-x="611" 
d="M335 483c122 0 225 -90 225 -239c0 -151 -106 -255 -263 -255c-51 0 -127 12 -210 52v631l70 14v-274c42 40 106 71 178 71zM300 48c111 0 187 74 187 191c0 114 -73 185 -167 185c-63 0 -123 -31 -163 -78v-264c48 -24 103 -34 143 -34z" />
    <glyph glyph-name="c" unicode="c" horiz-adv-x="538" 
d="M295 -13c-137 0 -244 93 -244 240c0 153 115 258 255 258c62 0 129 -21 174 -54v-70c-44 41 -110 64 -168 64c-108 0 -188 -81 -188 -193c0 -109 72 -182 178 -182c63 0 120 26 172 74l33 -42c-53 -55 -125 -95 -212 -95z" />
    <glyph glyph-name="d" unicode="d" horiz-adv-x="615" 
d="M453 672l70 14v-686h-68v67c-41 -42 -108 -77 -185 -77c-121 0 -220 85 -220 231c0 153 110 262 256 262c48 0 99 -12 147 -33v222zM287 51c67 0 127 33 166 81v248c-47 29 -99 44 -147 44c-104 0 -183 -78 -183 -196c0 -113 72 -177 164 -177z" />
    <glyph glyph-name="e" unicode="e" horiz-adv-x="574" 
d="M308 48c67 0 125 27 178 74l32 -41c-53 -52 -125 -92 -218 -92c-140 0 -249 87 -249 237s111 259 254 259c126 0 216 -84 216 -209c0 -22 -3 -38 -7 -52h-393c4 -108 76 -176 187 -176zM306 429c-90 0 -162 -60 -181 -151h330c-2 93 -61 151 -149 151z" />
    <glyph glyph-name="f" unicode="f" horiz-adv-x="376" 
d="M279 633c-80 0 -117 -38 -117 -135v-25h198v-61h-198v-412h-70v497c0 136 63 196 181 196c49 0 98 -11 132 -25v-63c-37 18 -82 28 -126 28z" />
    <glyph glyph-name="g" unicode="g" horiz-adv-x="601" 
d="M588 473v-63l-142 3c42 -34 66 -82 66 -135c0 -105 -97 -187 -227 -187c-15 0 -30 1 -44 3l-101 -177c73 50 166 85 247 85c87 0 171 -39 178 -182l-72 -8c-8 101 -59 125 -124 126c-83 1 -189 -41 -272 -98l-44 32l120 241c-71 32 -117 93 -117 170
c0 110 96 198 225 198c24 0 48 -3 69 -8h238zM285 147c90 0 157 56 157 135c0 81 -70 142 -160 142c-88 0 -156 -59 -156 -140s70 -137 159 -137z" />
    <glyph glyph-name="h" unicode="h" horiz-adv-x="630" 
d="M367 481c99 0 179 -57 179 -202v-279h-70v265c0 102 -42 153 -128 153c-66 0 -128 -32 -186 -112v-306h-70v672l70 14v-307c54 66 126 102 205 102z" />
    <glyph glyph-name="i" unicode="i" horiz-adv-x="254" 
d="M126 577c-29 0 -51 22 -51 50c0 29 22 51 51 51s52 -22 52 -51c0 -28 -23 -50 -52 -50zM92 0v467l70 17v-484h-70z" />
    <glyph glyph-name="j" unicode="j" horiz-adv-x="258" 
d="M131 577c-29 0 -51 22 -51 50c0 29 22 51 51 51c28 0 52 -22 52 -51c0 -28 -24 -50 -52 -50zM67 -200l-45 33c52 66 74 134 74 247v387l70 17v-412c0 -110 -29 -198 -99 -272z" />
    <glyph glyph-name="k" unicode="k" horiz-adv-x="567" 
d="M463 0l-190 227l-111 -100v-127h-70v672l70 14v-482l288 269h97l-225 -202l233 -271h-92z" />
    <glyph glyph-name="l" unicode="l" horiz-adv-x="254" 
d="M92 0v672l70 14v-686h-70z" />
    <glyph glyph-name="m" unicode="m" horiz-adv-x="911" 
d="M670 479c88 0 157 -59 157 -203v-276h-70v265c0 104 -38 151 -103 151c-59 0 -119 -38 -161 -113c1 -8 1 -17 1 -27v-276h-70v265c0 104 -38 151 -103 151c-58 0 -117 -36 -159 -109v-307h-70v467l68 17v-100c43 56 105 95 176 95c65 0 121 -33 145 -110
c44 65 112 110 189 110z" />
    <glyph glyph-name="n" unicode="n" horiz-adv-x="629" 
d="M366 481c99 0 179 -57 179 -202v-279h-70v265c0 102 -43 153 -129 153c-69 0 -132 -39 -184 -110v-308h-70v467l68 17v-109c55 68 130 106 206 106z" />
    <glyph glyph-name="o" unicode="o" horiz-adv-x="611" 
d="M304 -13c-141 0 -254 96 -254 244c0 145 114 254 257 254c140 0 254 -95 254 -244c0 -145 -115 -254 -257 -254zM309 46c102 0 179 81 179 191c0 113 -77 190 -186 190c-103 0 -179 -81 -179 -191c0 -114 76 -190 186 -190z" />
    <glyph glyph-name="p" unicode="p" horiz-adv-x="617" 
d="M341 483c120 0 226 -90 226 -239c0 -152 -111 -255 -261 -255c-43 0 -93 9 -144 30v-219h-70v667l68 17v-75c42 41 109 74 181 74zM309 48c110 0 185 75 185 189c0 112 -72 185 -170 185c-64 0 -123 -31 -162 -77v-254c47 -28 99 -43 147 -43z" />
    <glyph glyph-name="q" unicode="q" horiz-adv-x="609" 
d="M313 485c62 0 136 -19 211 -62v-623h-70v264c-40 -40 -104 -74 -180 -74c-121 0 -223 85 -223 231c0 153 111 264 262 264zM288 51c67 0 127 32 166 80v254c-47 27 -98 41 -144 41c-109 0 -186 -80 -186 -196c0 -108 66 -179 164 -179z" />
    <glyph glyph-name="r" unicode="r" horiz-adv-x="422" 
d="M349 481c18 0 37 -2 54 -6v-72c-17 7 -36 10 -57 10c-73 0 -129 -40 -184 -142v-271h-70v467l68 17v-137c49 89 115 134 189 134z" />
    <glyph glyph-name="s" unicode="s" horiz-adv-x="526" 
d="M282 -13c-98 0 -189 33 -240 68l27 49c52 -36 135 -60 211 -60c77 0 129 31 129 81c0 44 -36 62 -144 81c-147 24 -206 56 -206 137c0 83 82 142 204 142c80 0 148 -20 195 -47v-65c-49 38 -123 56 -195 56c-82 0 -137 -32 -137 -80c0 -42 36 -59 154 -80
c132 -22 197 -51 197 -139c0 -86 -77 -143 -195 -143z" />
    <glyph glyph-name="t" unicode="t" horiz-adv-x="362" 
d="M92 0v632l70 17v-176h184v-60h-184v-413h-70z" />
    <glyph glyph-name="u" unicode="u" horiz-adv-x="620" 
d="M458 466l70 16v-482h-68v94c-53 -67 -126 -102 -200 -102c-101 0 -178 57 -178 202v272l70 16v-274c0 -103 42 -153 125 -153c63 0 124 29 181 108v303z" />
    <glyph glyph-name="v" unicode="v" horiz-adv-x="546" 
d="M454 473h70l-216 -473h-70l-216 473h75l179 -398z" />
    <glyph glyph-name="w" unicode="w" horiz-adv-x="784" 
d="M687 473h68l-165 -473h-68l-132 378l-127 -378h-68l-165 473h72l130 -396l130 396h66l131 -396z" />
    <glyph glyph-name="x" unicode="x" horiz-adv-x="532" 
d="M513 0h-86l-165 196l-161 -196h-83l204 244l-193 229h87l155 -184l149 184h83l-193 -231z" />
    <glyph glyph-name="y" unicode="y" horiz-adv-x="537" 
d="M445 473h70l-307 -673h-71l99 210l-213 463h75l174 -386z" />
    <glyph glyph-name="z" unicode="z" horiz-adv-x="506" 
d="M138 59h325v-59h-420v56l315 357h-307v60h404v-56z" />
    <glyph glyph-name="aacute" unicode="&#xe1;" horiz-adv-x="611" 
d="M428 650l-170 -125l-30 35l157 141zM449 466l70 18v-484h-69v69c-39 -42 -103 -79 -181 -79c-117 0 -219 87 -219 232c0 152 113 260 256 260c48 0 94 -12 143 -35v19zM285 51c62 0 124 31 164 81v244c-51 33 -97 47 -142 47c-106 0 -184 -78 -184 -195
c0 -106 66 -177 162 -177z" />
    <glyph glyph-name="acircumflex" unicode="&#xe2;" horiz-adv-x="611" 
d="M307 618l-117 -93l-30 34l125 124h44l125 -124l-31 -34zM449 466l70 18v-484h-69v69c-39 -42 -103 -79 -181 -79c-117 0 -219 87 -219 232c0 152 113 260 256 260c48 0 94 -12 143 -35v19zM285 51c62 0 124 31 164 81v244c-51 33 -97 47 -142 47
c-106 0 -184 -78 -184 -195c0 -106 66 -177 162 -177z" />
    <glyph glyph-name="adieresis" unicode="&#xe4;" horiz-adv-x="611" 
d="M228 557c-25 0 -44 21 -44 45s19 45 44 45s45 -21 45 -45s-20 -45 -45 -45zM386 557c-24 0 -44 21 -44 45s20 45 44 45c27 0 45 -21 45 -45s-18 -45 -45 -45zM449 466l70 18v-484h-69v69c-39 -42 -103 -79 -181 -79c-117 0 -219 87 -219 232c0 152 113 260 256 260
c48 0 94 -12 143 -35v19zM285 51c62 0 124 31 164 81v244c-51 33 -97 47 -142 47c-106 0 -184 -78 -184 -195c0 -106 66 -177 162 -177z" />
    <glyph glyph-name="agrave" unicode="&#xe0;" horiz-adv-x="611" 
d="M387 560l-29 -35l-171 125l43 51zM449 466l70 18v-484h-69v69c-39 -42 -103 -79 -181 -79c-117 0 -219 87 -219 232c0 152 113 260 256 260c48 0 94 -12 143 -35v19zM285 51c62 0 124 31 164 81v244c-51 33 -97 47 -142 47c-106 0 -184 -78 -184 -195
c0 -106 66 -177 162 -177z" />
    <glyph glyph-name="aring" unicode="&#xe5;" horiz-adv-x="611" 
d="M308 526c-53 0 -97 40 -97 94s46 94 99 94c54 0 96 -40 96 -94s-45 -94 -98 -94zM309 675c-31 0 -53 -24 -53 -55s22 -55 53 -55c32 0 51 23 51 55c0 31 -19 55 -51 55zM449 466l70 18v-484h-69v69c-39 -42 -103 -79 -181 -79c-117 0 -219 87 -219 232
c0 152 113 260 256 260c48 0 94 -12 143 -35v19zM285 51c62 0 124 31 164 81v244c-51 33 -97 47 -142 47c-106 0 -184 -78 -184 -195c0 -106 66 -177 162 -177z" />
    <glyph glyph-name="atilde" unicode="&#xe3;" horiz-adv-x="611" 
d="M246 611c-22 0 -36 -22 -43 -50l-41 16c6 38 28 87 81 87c51 0 89 -53 127 -53c21 0 35 21 42 50l41 -16c-6 -38 -27 -87 -78 -87c-52 0 -94 53 -129 53zM449 466l70 18v-484h-69v69c-39 -42 -103 -79 -181 -79c-117 0 -219 87 -219 232c0 152 113 260 256 260
c48 0 94 -12 143 -35v19zM285 51c62 0 124 31 164 81v244c-51 33 -97 47 -142 47c-106 0 -184 -78 -184 -195c0 -106 66 -177 162 -177z" />
    <glyph glyph-name="ae" unicode="&#xe6;" horiz-adv-x="947" 
d="M682 48c66 0 125 27 177 74l33 -41c-53 -52 -126 -92 -219 -92s-172 41 -213 115c-58 -68 -139 -117 -236 -117c-109 0 -181 64 -181 152s71 160 180 160c78 0 153 -36 208 -76v93c0 79 -40 110 -126 110c-73 0 -138 -18 -197 -41l-13 56c59 25 135 45 213 45
c96 0 154 -30 176 -98c44 61 115 97 198 97c123 0 213 -84 213 -209c0 -21 -3 -38 -8 -52h-392c3 -107 75 -176 187 -176zM679 429c-89 0 -161 -59 -179 -151h329c-3 93 -62 151 -150 151zM233 44c76 0 149 45 205 117c-58 47 -133 85 -204 85c-78 0 -120 -46 -120 -103
c0 -58 45 -99 119 -99z" />
    <glyph glyph-name="ccedilla" unicode="&#xe7;" horiz-adv-x="537" 
d="M506 82c-48 -50 -112 -87 -188 -94l-16 -38c11 2 22 3 34 3c45 0 79 -27 79 -70c0 -55 -45 -92 -119 -92c-39 0 -73 9 -93 20l14 39c16 -7 45 -17 79 -17c39 0 66 16 66 45c0 23 -20 35 -45 35c-20 0 -30 -2 -44 -7l-22 20l21 62c-126 9 -222 100 -222 239
c0 153 115 258 255 258c62 0 129 -21 174 -54v-70c-44 41 -110 64 -168 64c-108 0 -188 -81 -188 -193c0 -109 72 -182 178 -182c63 0 120 26 172 74z" />
    <glyph glyph-name="eth" unicode="&#xf0;" horiz-adv-x="616" 
d="M423 605c82 -67 131 -170 131 -300c0 -187 -98 -316 -260 -316c-136 0 -243 90 -243 238c0 147 108 237 236 237c63 0 136 -23 187 -69c-16 79 -54 139 -112 179l-127 -65l-26 47l95 50c-44 17 -95 27 -153 29v58c84 0 158 -18 220 -53l109 57l28 -48zM299 53
c113 0 184 93 184 248v12c-52 67 -128 93 -188 93c-99 0 -172 -70 -172 -177c0 -113 81 -176 176 -176z" />
    <glyph glyph-name="eacute" unicode="&#xe9;" horiz-adv-x="574" 
d="M423 650l-170 -125l-30 35l157 141zM308 48c67 0 125 27 178 74l32 -41c-53 -52 -125 -92 -218 -92c-140 0 -249 87 -249 237s111 259 254 259c126 0 216 -84 216 -209c0 -22 -3 -38 -7 -52h-393c4 -108 76 -176 187 -176zM306 429c-90 0 -162 -60 -181 -151h330
c-2 93 -61 151 -149 151z" />
    <glyph glyph-name="ecircumflex" unicode="&#xea;" horiz-adv-x="574" 
d="M303 618l-117 -93l-30 34l125 124h44l125 -124l-31 -34zM308 48c67 0 125 27 178 74l32 -41c-53 -52 -125 -92 -218 -92c-140 0 -249 87 -249 237s111 259 254 259c126 0 216 -84 216 -209c0 -22 -3 -38 -7 -52h-393c4 -108 76 -176 187 -176zM306 429
c-90 0 -162 -60 -181 -151h330c-2 93 -61 151 -149 151z" />
    <glyph glyph-name="edieresis" unicode="&#xeb;" horiz-adv-x="574" 
d="M223 557c-25 0 -44 21 -44 45s19 45 44 45s45 -21 45 -45s-20 -45 -45 -45zM381 557c-24 0 -44 21 -44 45s20 45 44 45c27 0 45 -21 45 -45s-18 -45 -45 -45zM308 48c67 0 125 27 178 74l32 -41c-53 -52 -125 -92 -218 -92c-140 0 -249 87 -249 237s111 259 254 259
c126 0 216 -84 216 -209c0 -22 -3 -38 -7 -52h-393c4 -108 76 -176 187 -176zM306 429c-90 0 -162 -60 -181 -151h330c-2 93 -61 151 -149 151z" />
    <glyph glyph-name="egrave" unicode="&#xe8;" horiz-adv-x="574" 
d="M383 560l-29 -35l-171 125l43 51zM308 48c67 0 125 27 178 74l32 -41c-53 -52 -125 -92 -218 -92c-140 0 -249 87 -249 237s111 259 254 259c126 0 216 -84 216 -209c0 -22 -3 -38 -7 -52h-393c4 -108 76 -176 187 -176zM306 429c-90 0 -162 -60 -181 -151h330
c-2 93 -61 151 -149 151z" />
    <glyph glyph-name="dotlessi" unicode="&#x131;" horiz-adv-x="253" 
d="M92 0v466l69 16v-482h-69z" />
    <glyph glyph-name="iacute" unicode="&#xed;" horiz-adv-x="253" 
d="M76 525l-30 35l157 141l43 -51zM92 0v466l69 16v-482h-69z" />
    <glyph glyph-name="icircumflex" unicode="&#xee;" horiz-adv-x="253" 
d="M148 683l125 -124l-31 -34l-116 93l-117 -93l-30 34l125 124h44zM92 0v466l69 16v-482h-69z" />
    <glyph glyph-name="idieresis" unicode="&#xef;" horiz-adv-x="253" 
d="M47 557c-25 0 -44 21 -44 45s19 45 44 45s45 -21 45 -45s-20 -45 -45 -45zM205 557c-24 0 -44 21 -44 45s20 45 44 45c27 0 45 -21 45 -45s-18 -45 -45 -45zM92 0v466l69 16v-482h-69z" />
    <glyph glyph-name="igrave" unicode="&#xec;" horiz-adv-x="253" 
d="M177 525l-171 125l43 51l157 -141zM92 0v466l69 16v-482h-69z" />
    <glyph glyph-name="lslash" unicode="&#x142;" horiz-adv-x="361" 
d="M340 344l-119 -53v-291h-70v260l-97 -43l-24 59l121 54v342l70 14v-325l94 42z" />
    <glyph glyph-name="ntilde" unicode="&#xf1;" horiz-adv-x="629" 
d="M265 611c-22 0 -36 -22 -43 -50l-41 16c6 38 28 87 81 87c51 0 89 -53 127 -53c21 0 35 21 42 50l41 -16c-6 -38 -27 -87 -78 -87c-52 0 -94 53 -129 53zM366 481c99 0 179 -57 179 -202v-279h-70v265c0 102 -43 153 -129 153c-69 0 -132 -39 -184 -110v-308h-70v467
l68 17v-109c55 68 130 106 206 106z" />
    <glyph glyph-name="oacute" unicode="&#xf3;" horiz-adv-x="611" 
d="M256 525l-30 35l157 141l43 -51zM304 -13c-141 0 -254 96 -254 244c0 145 114 254 257 254c140 0 254 -95 254 -244c0 -145 -115 -254 -257 -254zM309 46c102 0 179 81 179 191c0 113 -77 190 -186 190c-103 0 -179 -81 -179 -191c0 -114 76 -190 186 -190z" />
    <glyph glyph-name="ocircumflex" unicode="&#xf4;" horiz-adv-x="611" 
d="M306 618l-117 -93l-30 34l125 124h44l125 -124l-31 -34zM307 485c140 0 254 -95 254 -244c0 -145 -115 -254 -257 -254c-141 0 -254 96 -254 244c0 145 114 254 257 254zM309 46c102 0 179 81 179 191c0 113 -77 190 -186 190c-103 0 -179 -81 -179 -191
c0 -114 76 -190 186 -190z" />
    <glyph glyph-name="odieresis" unicode="&#xf6;" horiz-adv-x="611" 
d="M226 557c-25 0 -44 21 -44 45s19 45 44 45s45 -21 45 -45s-20 -45 -45 -45zM384 557c-24 0 -44 21 -44 45s20 45 44 45c27 0 45 -21 45 -45s-18 -45 -45 -45zM304 -13c-141 0 -254 96 -254 244c0 145 114 254 257 254c140 0 254 -95 254 -244c0 -145 -115 -254 -257 -254
zM309 46c102 0 179 81 179 191c0 113 -77 190 -186 190c-103 0 -179 -81 -179 -191c0 -114 76 -190 186 -190z" />
    <glyph glyph-name="ograve" unicode="&#xf2;" horiz-adv-x="611" 
d="M357 525l-171 125l43 51l157 -141zM304 -13c-141 0 -254 96 -254 244c0 145 114 254 257 254c140 0 254 -95 254 -244c0 -145 -115 -254 -257 -254zM309 46c102 0 179 81 179 191c0 113 -77 190 -186 190c-103 0 -179 -81 -179 -191c0 -114 76 -190 186 -190z" />
    <glyph glyph-name="oslash" unicode="&#xf8;" horiz-adv-x="622" 
d="M566 448l-53 -52c33 -40 53 -93 53 -155c0 -145 -115 -254 -256 -254c-61 0 -118 18 -161 51l-55 -54l-43 40l56 55c-32 40 -51 92 -51 152c0 145 114 254 256 254c60 0 114 -17 158 -48l53 52zM308 428c-105 0 -182 -81 -182 -192c0 -43 11 -81 31 -111l270 265
c-32 24 -73 38 -119 38zM314 44c104 0 182 82 182 193c0 44 -12 83 -33 114l-271 -266c32 -26 74 -41 122 -41z" />
    <glyph glyph-name="otilde" unicode="&#xf5;" horiz-adv-x="611" 
d="M201 561l-41 16c6 38 28 87 81 87c51 0 89 -53 127 -53c21 0 35 21 42 50l41 -16c-6 -38 -27 -87 -78 -87c-52 0 -94 53 -129 53c-22 0 -36 -22 -43 -50zM304 -13c-141 0 -254 96 -254 244c0 145 114 254 257 254c140 0 254 -95 254 -244c0 -145 -115 -254 -257 -254z
M309 46c102 0 179 81 179 191c0 113 -77 190 -186 190c-103 0 -179 -81 -179 -191c0 -114 76 -190 186 -190z" />
    <glyph glyph-name="oe" unicode="&#x153;" horiz-adv-x="988" 
d="M903 122l33 -41c-51 -52 -122 -92 -214 -92c-93 0 -171 43 -209 120c-43 -75 -122 -124 -214 -124c-136 0 -249 92 -249 246c0 148 112 256 252 256c94 0 176 -47 216 -129c41 79 117 127 208 127c122 0 209 -85 209 -209c0 -21 -3 -38 -8 -52h-377
c3 -107 74 -175 181 -175c66 0 122 26 172 73zM305 44c96 0 174 80 174 193s-77 192 -181 192c-97 0 -175 -80 -175 -193c0 -114 78 -192 182 -192zM727 428c-84 0 -153 -57 -172 -147h314c-3 90 -58 147 -142 147z" />
    <glyph glyph-name="thorn" unicode="&#xfe;" horiz-adv-x="618" 
d="M338 483c127 0 229 -89 229 -240c0 -150 -110 -254 -261 -254c-43 0 -93 9 -144 30v-219h-70v872l70 15v-276c43 40 110 72 176 72zM309 47c110 0 185 77 185 187c0 122 -76 190 -175 190c-59 0 -117 -30 -157 -74v-259c47 -31 99 -44 147 -44z" />
    <glyph glyph-name="scaron" unicode="&#x161;" horiz-adv-x="526" 
d="M284 540h-44l-125 124l31 34l116 -93l117 93l30 -34zM280 269c132 -22 197 -51 197 -139c0 -86 -77 -143 -195 -143c-98 0 -189 33 -240 68l27 49c52 -36 135 -60 211 -60c77 0 129 31 129 81c0 44 -36 62 -144 81c-147 24 -206 56 -206 137c0 83 82 142 204 142
c80 0 148 -20 195 -47v-65c-49 38 -123 56 -195 56c-82 0 -137 -32 -137 -80c0 -42 36 -59 154 -80z" />
    <glyph glyph-name="germandbls" unicode="&#xdf;" horiz-adv-x="592" 
d="M394 -13c-73 0 -148 32 -191 67l24 50c44 -36 113 -59 167 -59s98 24 98 75c0 47 -52 63 -129 91c-78 28 -128 55 -128 109c0 100 163 113 163 224c0 55 -48 90 -110 90c-74 0 -126 -54 -126 -156v-478h-70v469c0 134 77 224 198 224c101 0 178 -61 178 -141
c0 -130 -165 -149 -165 -218c0 -34 43 -46 98 -67c95 -34 158 -68 158 -141c0 -91 -77 -139 -165 -139z" />
    <glyph glyph-name="uacute" unicode="&#xfa;" horiz-adv-x="620" 
d="M417 650l-170 -125l-30 35l157 141zM458 466l70 16v-482h-68v94c-53 -67 -126 -102 -200 -102c-101 0 -178 57 -178 202v272l70 16v-274c0 -103 42 -153 125 -153c63 0 124 29 181 108v303z" />
    <glyph glyph-name="ucircumflex" unicode="&#xfb;" horiz-adv-x="620" 
d="M296 618l-117 -93l-30 34l125 124h44l125 -124l-31 -34zM458 466l70 16v-482h-68v94c-53 -67 -126 -102 -200 -102c-101 0 -178 57 -178 202v272l70 16v-274c0 -103 42 -153 125 -153c63 0 124 29 181 108v303z" />
    <glyph glyph-name="udieresis" unicode="&#xfc;" horiz-adv-x="620" 
d="M217 557c-25 0 -44 21 -44 45s19 45 44 45s45 -21 45 -45s-20 -45 -45 -45zM375 557c-24 0 -44 21 -44 45s20 45 44 45c27 0 45 -21 45 -45s-18 -45 -45 -45zM458 466l70 16v-482h-68v94c-53 -67 -126 -102 -200 -102c-101 0 -178 57 -178 202v272l70 16v-274
c0 -103 42 -153 125 -153c63 0 124 29 181 108v303z" />
    <glyph glyph-name="ugrave" unicode="&#xf9;" horiz-adv-x="620" 
d="M377 560l-29 -35l-171 125l43 51zM458 466l70 16v-482h-68v94c-53 -67 -126 -102 -200 -102c-101 0 -178 57 -178 202v272l70 16v-274c0 -103 42 -153 125 -153c63 0 124 29 181 108v303z" />
    <glyph glyph-name="yacute" unicode="&#xfd;" horiz-adv-x="537" 
d="M396 650l-170 -125l-30 35l157 141zM445 473h70l-307 -673h-71l99 210l-213 463h75l174 -386z" />
    <glyph glyph-name="ydieresis" unicode="&#xff;" horiz-adv-x="537" 
d="M197 557c-25 0 -44 21 -44 45s19 45 44 45s45 -21 45 -45s-20 -45 -45 -45zM355 557c-24 0 -44 21 -44 45s20 45 44 45c27 0 45 -21 45 -45s-18 -45 -45 -45zM445 473h70l-307 -673h-71l99 210l-213 463h75l174 -386z" />
    <glyph glyph-name="zcaron" unicode="&#x17e;" horiz-adv-x="506" 
d="M275 541h-44l-125 124l31 34l116 -93l117 93l30 -34zM138 59h325v-59h-420v56l315 357h-307v60h404v-56z" />
    <glyph glyph-name="ordmasculine" unicode="&#xba;" horiz-adv-x="507" 
d="M251 265c-113 0 -196 79 -196 188c0 111 85 194 201 194c114 0 197 -79 197 -188c0 -112 -87 -194 -202 -194zM256 319c76 0 132 57 132 134c0 81 -59 141 -137 141c-77 0 -132 -58 -132 -135c0 -79 59 -140 137 -140z" />
    <glyph glyph-name="ordfeminine" unicode="&#xaa;" horiz-adv-x="503" 
d="M359 633l62 16v-373l-60 -8v53c-32 -32 -81 -56 -134 -56c-91 0 -172 69 -172 184c0 119 85 200 199 200c33 0 69 -7 105 -23v7zM242 321c47 0 91 24 117 59v184c-36 21 -70 30 -102 30c-81 0 -136 -57 -136 -140c0 -80 53 -133 121 -133z" />
    <glyph glyph-name="ampersand" unicode="&#x26;" horiz-adv-x="707" 
d="M659 24l-50 -51l-108 106c-65 -57 -146 -92 -232 -92c-111 0 -201 58 -201 167c0 83 52 142 152 197c-51 53 -84 100 -84 160c0 89 73 159 177 159c98 0 167 -63 167 -146c0 -85 -74 -139 -152 -181l177 -171c48 63 78 143 80 227h66c-1 -100 -39 -196 -101 -270z
M310 609c-61 0 -103 -41 -103 -96c0 -45 28 -80 78 -130c69 37 124 78 124 138c0 52 -41 88 -99 88zM275 49c67 0 131 27 182 72l-195 190c-90 -52 -121 -96 -121 -151c0 -69 51 -111 134 -111z" />
    <glyph glyph-name="period" unicode="." horiz-adv-x="251" 
d="M125 -7c-32 0 -57 28 -57 58c0 33 25 59 57 59c33 0 58 -26 58 -59c0 -30 -25 -58 -58 -58z" />
    <glyph glyph-name="comma" unicode="," horiz-adv-x="237" 
d="M75 -147l-45 31c37 48 53 97 53 181v43h73v-44c0 -87 -28 -153 -81 -211z" />
    <glyph glyph-name="colon" unicode=":" horiz-adv-x="268" 
d="M132 334c-32 0 -57 28 -57 58c0 33 25 59 57 59c33 0 58 -26 58 -59c0 -30 -25 -58 -58 -58zM135 -7c-32 0 -57 28 -57 58c0 33 25 59 57 59c33 0 58 -26 58 -59c0 -30 -25 -58 -58 -58z" />
    <glyph glyph-name="semicolon" unicode=";" horiz-adv-x="277" 
d="M139 334c-32 0 -57 28 -57 58c0 33 25 59 57 59c33 0 58 -26 58 -59c0 -30 -25 -58 -58 -58zM103 -146l-45 31c37 48 53 97 53 181v43h73v-44c0 -87 -28 -153 -81 -211z" />
    <glyph glyph-name="ellipsis" unicode="&#x2026;" horiz-adv-x="788" 
d="M125 -7c-32 0 -57 28 -57 58c0 33 25 59 57 59c33 0 58 -26 58 -59c0 -30 -25 -58 -58 -58zM393 -7c-32 0 -57 28 -57 58c0 33 25 59 57 59c34 0 58 -26 58 -59c0 -30 -24 -58 -58 -58zM661 -7c-32 0 -57 28 -57 58c0 33 25 59 57 59c33 0 59 -26 59 -59
c0 -30 -26 -58 -59 -58z" />
    <glyph glyph-name="exclam" unicode="!" horiz-adv-x="286" 
d="M177 194h-68l-7 464h82zM142 -7c-31 0 -56 26 -56 55c0 32 25 57 56 57c33 0 58 -25 58 -57c0 -29 -25 -55 -58 -55z" />
    <glyph glyph-name="exclamdown" unicode="&#xa1;" horiz-adv-x="286" 
d="M200 610c0 -32 -25 -57 -58 -57c-31 0 -56 25 -56 57c0 29 25 55 56 55c33 0 58 -26 58 -55zM177 464l7 -464h-82l7 464h68z" />
    <glyph glyph-name="question" unicode="?" horiz-adv-x="508" 
d="M194 194c-3 10 -4 19 -4 30c0 129 198 152 198 281c0 61 -51 102 -135 102c-71 0 -134 -29 -189 -76l-33 46c54 51 136 94 228 94c112 0 204 -61 204 -162c0 -163 -204 -192 -204 -293c0 -7 1 -15 2 -22h-67zM229 -7c-32 0 -57 26 -57 56s25 56 57 56c31 0 56 -26 56 -56
s-25 -56 -56 -56z" />
    <glyph glyph-name="questiondown" unicode="&#xbf;" horiz-adv-x="509" 
d="M280 666c32 0 57 -26 57 -56s-25 -56 -57 -56c-31 0 -56 26 -56 56s25 56 56 56zM315 465c3 -10 4 -19 4 -30c0 -129 -198 -152 -198 -281c0 -61 51 -102 135 -102c71 0 134 29 189 76l33 -46c-54 -51 -136 -94 -228 -94c-112 0 -204 61 -204 162c0 163 204 192 204 293
c0 7 -1 15 -2 22h67z" />
    <glyph glyph-name="quotesingle" unicode="'" horiz-adv-x="209" 
d="M73 658h63l-10 -220h-43z" />
    <glyph glyph-name="quotedbl" unicode="&#x22;" horiz-adv-x="350" 
d="M73 658h63l-10 -220h-43zM214 658h63l-10 -220h-43z" />
    <glyph glyph-name="quoteleft" unicode="&#x2018;" horiz-adv-x="243" 
d="M151 667l45 -31c-37 -48 -53 -97 -53 -181v-43h-73v44c0 87 28 153 81 211z" />
    <glyph glyph-name="quoteright" unicode="&#x2019;" horiz-adv-x="235" 
d="M97 419l-45 31c37 48 53 97 53 181v43h73v-44c0 -87 -28 -153 -81 -211z" />
    <glyph glyph-name="quotedblleft" unicode="&#x201c;" horiz-adv-x="413" 
d="M151 667l45 -31c-37 -48 -53 -97 -53 -181v-43h-73v44c0 87 28 153 81 211zM321 667l45 -31c-37 -48 -53 -97 -53 -181v-43h-73v44c0 87 28 153 81 211z" />
    <glyph glyph-name="quotedblright" unicode="&#x201d;" horiz-adv-x="405" 
d="M97 419l-45 31c37 48 53 97 53 181v43h73v-44c0 -87 -28 -153 -81 -211zM267 419l-45 31c37 48 53 97 53 181v43h73v-44c0 -87 -28 -153 -81 -211z" />
    <glyph glyph-name="quotesinglbase" unicode="&#x201a;" horiz-adv-x="237" 
d="M75 -147l-45 31c37 48 53 97 53 181v43h73v-44c0 -87 -28 -153 -81 -211z" />
    <glyph glyph-name="quotedblbase" unicode="&#x201e;" horiz-adv-x="417" 
d="M75 -147l-45 31c37 48 53 97 53 181v43h73v-44c0 -87 -28 -153 -81 -211zM255 -147l-45 31c37 48 53 97 53 181v43h73v-44c0 -87 -28 -153 -81 -211z" />
    <glyph glyph-name="guilsinglleft" unicode="&#x2039;" horiz-adv-x="376" 
d="M321 402l-207 -165l207 -164l-36 -42l-238 189v34l238 189z" />
    <glyph glyph-name="guilsinglright" unicode="&#x203a;" horiz-adv-x="376" 
d="M91 443l238 -189v-34l-238 -189l-36 42l207 164l-207 165z" />
    <glyph glyph-name="guillemotleft" unicode="&#xab;" horiz-adv-x="600" 
d="M321 402l-207 -165l207 -164l-36 -42l-238 189v34l238 189zM545 402l-207 -165l207 -164l-36 -42l-238 189v34l238 189z" />
    <glyph glyph-name="guillemotright" unicode="&#xbb;" horiz-adv-x="600" 
d="M329 254v-34l-238 -189l-36 42l207 164l-207 165l36 41zM315 443l238 -189v-34l-238 -189l-36 42l207 164l-207 165z" />
    <glyph glyph-name="hyphen" unicode="-" horiz-adv-x="451" 
d="M76 223v63h299v-63h-299z" />
    <glyph glyph-name="endash" unicode="&#x2013;" horiz-adv-x="682" 
d="M76 223v63h531v-63h-531z" />
    <glyph glyph-name="emdash" unicode="&#x2014;" horiz-adv-x="956" 
d="M76 223v63h804v-63h-804z" />
    <glyph glyph-name="periodcentered" unicode="&#xb7;" horiz-adv-x="261" 
d="M130 207c-32 0 -57 27 -57 57c0 34 25 59 57 59c33 0 58 -25 58 -59c0 -30 -25 -57 -58 -57z" />
    <glyph glyph-name="bullet" unicode="&#x2022;" horiz-adv-x="403" 
d="M201 150c-58 0 -105 48 -105 106s47 103 105 103s106 -45 106 -103s-48 -106 -106 -106z" />
    <glyph glyph-name="underscore" unicode="_" horiz-adv-x="441" 
d="M-12 -124v63h465v-63h-465z" />
    <glyph glyph-name="slash" unicode="/" horiz-adv-x="408" 
d="M37 -30l267 731h67l-266 -731h-68z" />
    <glyph glyph-name="backslash" unicode="\" horiz-adv-x="408" 
d="M371 -30h-68l-266 731h67z" />
    <glyph glyph-name="fraction" unicode="&#x2044;" horiz-adv-x="548" 
d="M-8 0l496 658h69l-496 -658h-69z" />
    <glyph glyph-name="bar" unicode="|" horiz-adv-x="277" 
d="M106 855h65v-1052h-65v1052z" />
    <glyph glyph-name="brokenbar" unicode="&#xa6;" horiz-adv-x="277" 
d="M106 433v422h65v-422h-65zM106 -196v421h65v-421h-65z" />
    <glyph glyph-name="parenleft" unicode="(" horiz-adv-x="322" 
d="M254 -128c-121 96 -199 234 -199 424c0 186 76 327 202 427l44 -44c-114 -92 -178 -222 -178 -382c0 -164 66 -291 176 -382z" />
    <glyph glyph-name="parenright" unicode=")" horiz-adv-x="322" 
d="M68 719c121 -96 199 -234 199 -424c0 -186 -76 -327 -202 -427l-44 44c114 92 178 222 178 382c0 164 -66 291 -176 382z" />
    <glyph glyph-name="bracketleft" unicode="[" horiz-adv-x="318" 
d="M283 -67v-60h-178v851h178v-60h-111v-731h111z" />
    <glyph glyph-name="bracketright" unicode="]" horiz-adv-x="318" 
d="M35 -67h111v731h-111v60h178v-851h-178v60z" />
    <glyph glyph-name="braceleft" unicode="{" horiz-adv-x="342" 
d="M288 663c-84 0 -117 -35 -117 -93c0 -55 34 -125 34 -181c0 -41 -30 -75 -71 -90c41 -16 71 -50 71 -91c0 -57 -34 -126 -34 -181c0 -58 33 -93 117 -93h19v-59c-8 -1 -17 -1 -26 -1c-111 0 -177 54 -177 142c0 64 35 141 35 186c0 38 -23 68 -100 72v49
c77 4 100 34 100 72c0 45 -35 123 -35 185c0 89 66 143 177 143c9 0 18 0 26 -1v-59h-19z" />
    <glyph glyph-name="braceright" unicode="}" horiz-adv-x="342" 
d="M303 273c-77 -4 -100 -34 -100 -72c0 -45 35 -123 35 -185c0 -89 -66 -143 -177 -143c-9 0 -18 0 -26 1v59h19c84 0 117 35 117 93c0 55 -34 125 -34 181c0 41 30 75 71 91c-41 15 -71 49 -71 90c0 57 34 126 34 181c0 58 -33 93 -117 93h-19v59c8 1 17 1 26 1
c111 0 177 -54 177 -142c0 -64 -35 -141 -35 -186c0 -38 23 -68 100 -72v-49z" />
    <glyph glyph-name="asterisk" unicode="*" horiz-adv-x="525" 
d="M108 307l115 137l-171 43l22 66l163 -61l-10 173h71l-10 -173l163 60l22 -65l-171 -43l115 -137l-56 -42l-98 149l-100 -149z" />
    <glyph glyph-name="dagger" unicode="&#x2020;" 
d="M336 669v-212h188v-58h-188v-511h-62v511h-188v58h188v212h62z" />
    <glyph glyph-name="daggerdbl" unicode="&#x2021;" 
d="M524 399h-188v-229h188v-58h-188v-224h-62v224h-188v58h188v229h-188v58h188v212h62v-212h188v-58z" />
    <glyph glyph-name="section" unicode="&#xa7;" horiz-adv-x="562" 
d="M399 200c52 -20 84 -52 84 -109c0 -93 -77 -144 -192 -144c-91 0 -185 33 -236 70l27 49c50 -36 132 -61 206 -61c82 0 129 30 129 82c0 45 -42 62 -142 81c-121 22 -203 51 -203 134c0 60 39 99 102 117c-53 21 -87 51 -87 110c0 90 86 142 193 142
c86 0 155 -24 199 -52v-64c-58 38 -127 58 -196 58c-80 0 -131 -31 -131 -81c0 -49 46 -61 151 -80c121 -23 195 -54 195 -133c0 -61 -37 -100 -99 -119zM139 312c0 -49 53 -62 150 -83c8 -2 16 -3 24 -5c76 6 118 37 118 84c0 48 -41 64 -143 83l-30 6
c-75 -7 -119 -38 -119 -85z" />
    <glyph glyph-name="paragraph" unicode="&#xb6;" horiz-adv-x="755" 
d="M318 -130c33 38 59 91 59 169v196h-98c-144 0 -245 76 -245 208c0 133 103 215 248 215h414v-62h-70v-597h-67v597h-114v-550c0 -96 -35 -167 -83 -212zM105 447c0 -96 66 -150 178 -150h94v299h-94c-109 0 -178 -55 -178 -149z" />
    <glyph glyph-name="copyright" unicode="&#xa9;" horiz-adv-x="802" 
d="M401 -13c-189 0 -342 153 -342 342s153 342 342 342c188 0 341 -153 341 -342s-150 -342 -341 -342zM401 33c164 0 293 133 293 296s-131 296 -293 296s-293 -133 -293 -296s131 -296 293 -296zM404 146c-100 0 -177 69 -177 176c0 113 80 193 185 193
c44 0 84 -14 116 -40v-67c-31 32 -69 51 -112 51c-73 0 -123 -58 -123 -134c0 -72 47 -121 117 -121c41 0 80 19 111 52l35 -41c-36 -40 -89 -69 -152 -69z" />
    <glyph glyph-name="registered" unicode="&#xae;" horiz-adv-x="516" 
d="M258 671c110 0 199 -87 199 -197c0 -109 -89 -196 -199 -196s-199 87 -199 196c0 110 89 197 199 197zM258 314c89 0 161 72 161 160c0 89 -72 160 -161 160c-90 0 -161 -71 -161 -160c0 -88 71 -160 161 -160zM351 520c0 -29 -19 -51 -48 -61l57 -86h-48l-50 80h-45v-80
h-41v212h95c49 0 80 -26 80 -65zM217 550v-62h43c29 0 48 9 48 31c0 23 -18 31 -45 31h-46z" />
    <glyph glyph-name="trademark" unicode="&#x2122;" horiz-adv-x="763" 
d="M42 614v44h278v-44h-113v-246h-53v246h-112zM626 658h48v-290h-53v208l-82 -109h-30l-86 108v-207h-49v290h49l105 -132z" />
    <glyph glyph-name="at" unicode="@" horiz-adv-x="885" 
d="M825 315c1 -169 -87 -273 -179 -273c-55 0 -81 34 -87 79c-41 -50 -95 -82 -162 -82c-93 0 -163 62 -163 172c0 129 99 230 218 230c63 0 110 -21 144 -56l4 20l63 14l-45 -249c-2 -12 -3 -19 -3 -27c0 -29 14 -42 38 -42c56 0 109 95 108 212c0 160 -113 251 -272 251
c-207 0 -367 -159 -367 -366c0 -175 98 -271 279 -271c69 0 120 14 170 36l22 -52c-53 -27 -119 -44 -199 -44c-192 0 -339 102 -339 329c0 235 185 427 438 427c187 0 331 -106 332 -308zM410 95c54 0 101 27 148 86l24 127c-29 54 -69 80 -131 80
c-85 0 -154 -75 -154 -171c0 -77 42 -122 113 -122z" />
    <glyph glyph-name="numbersign" unicode="#" 
d="M602 403h-127l-41 -148h113v-59h-130l-55 -196h-64l55 196h-172l-55 -196h-63l55 196h-110v59h127l41 148h-112v59h129l55 196h63l-55 -196h172l55 196h64l-55 -196h110v-59zM370 255l41 148h-172l-41 -148h172z" />
    <glyph glyph-name="zero" unicode="0" 
d="M303 -10c-138 0 -253 118 -253 334c0 213 115 344 257 344c139 0 253 -120 253 -335c0 -212 -115 -343 -257 -343zM305 53c104 0 180 112 180 274c0 167 -73 278 -180 278c-104 0 -180 -114 -180 -276c0 -166 73 -276 180 -276z" />
    <glyph glyph-name="one" unicode="1" 
d="M378 64h144v-64h-389v64h173v534l-187 -23l-4 57l263 38v-606z" />
    <glyph glyph-name="two" unicode="2" 
d="M173 63c81 2 178 3 359 3v-65l-457 -1v58c291 254 351 326 351 419c0 74 -53 126 -131 126c-62 0 -122 -30 -171 -89l-39 43c56 68 129 111 217 111c118 0 201 -77 201 -186c0 -127 -108 -225 -330 -419z" />
    <glyph glyph-name="three" unicode="3" 
d="M397 348c83 -26 137 -83 137 -167c0 -117 -106 -193 -252 -193c-76 0 -154 23 -210 59v71c59 -42 132 -67 206 -67c100 0 181 47 181 133c0 82 -75 128 -192 128h-80v60h88c95 0 166 50 166 121c0 65 -64 113 -150 113c-72 0 -137 -30 -194 -79l-32 47
c55 52 139 94 234 94c124 0 216 -68 216 -167c0 -71 -48 -126 -118 -153z" />
    <glyph glyph-name="four" unicode="4" 
d="M570 215v-61h-127v-154h-70v154h-340v54l344 452h66v-445h127zM373 215l3 347l-264 -347h261z" />
    <glyph glyph-name="five" unicode="5" 
d="M311 401c134 0 226 -78 226 -194c0 -122 -101 -218 -255 -218c-78 0 -152 23 -205 60v73c60 -49 135 -68 202 -68c104 0 182 59 182 148c0 85 -63 136 -167 136c-52 0 -112 -14 -159 -45l-36 27l34 338l378 -1v-63l-321 1l-26 -233c34 21 90 39 147 39z" />
    <glyph glyph-name="six" unicode="6" 
d="M335 425c123 0 213 -85 213 -208c0 -130 -94 -227 -231 -227s-244 97 -244 318c0 215 117 360 287 360c50 0 104 -16 140 -35v-68c-37 27 -90 42 -133 42c-127 0 -211 -106 -219 -272c45 55 113 90 187 90zM318 51c95 0 156 70 156 159c0 91 -62 155 -151 155
c-69 0 -133 -35 -175 -96c10 -151 76 -218 170 -218z" />
    <glyph glyph-name="seven" unicode="7" 
d="M532 658v-57l-291 -601h-81l296 593c-127 -2 -251 -2 -374 -2v67h450z" />
    <glyph glyph-name="eight" unicode="8" 
d="M396 340c107 -33 160 -91 160 -172c0 -107 -102 -180 -251 -180s-251 72 -251 177c0 82 56 139 159 174c-89 33 -138 86 -138 159c0 102 93 172 230 172s231 -69 231 -171c0 -75 -53 -127 -140 -159zM148 494c0 -58 47 -104 160 -130c110 25 155 69 155 130
c0 69 -63 115 -158 115c-94 0 -157 -46 -157 -115zM305 49c105 0 176 49 176 122c0 64 -48 114 -177 143c-127 -27 -175 -79 -175 -143c0 -73 71 -122 176 -122z" />
    <glyph glyph-name="nine" unicode="9" 
d="M294 668c138 0 243 -105 243 -327c0 -223 -113 -351 -276 -351c-54 0 -112 13 -169 38v69c48 -28 107 -46 161 -46c130 0 204 95 210 271c-46 -56 -114 -85 -186 -85c-123 0 -211 84 -211 203c0 130 97 228 228 228zM289 296c67 0 130 28 173 90
c-10 150 -75 221 -169 221c-92 0 -153 -70 -153 -160s61 -151 149 -151z" />
    <glyph glyph-name="uni00B9" unicode="&#xb9;" horiz-adv-x="402" 
d="M259 288h94v-58h-275v58h114v313l-123 -13l-3 56l193 23v-379z" />
    <glyph glyph-name="uni00B2" unicode="&#xb2;" horiz-adv-x="453" 
d="M153 286c60 3 130 4 232 4v-59l-318 -1v50c166 135 229 193 229 256c0 44 -30 71 -76 71c-41 0 -82 -20 -113 -54l-35 39c36 44 93 74 158 74c81 0 137 -48 137 -121c0 -82 -70 -147 -214 -259z" />
    <glyph glyph-name="uni00B3" unicode="&#xb3;" horiz-adv-x="447" 
d="M298 455c51 -18 84 -54 84 -107c0 -76 -70 -126 -170 -126c-53 0 -106 14 -145 38v61c44 -29 93 -41 137 -41c64 0 107 25 107 72c0 46 -40 70 -115 70h-52v53h55c65 0 101 38 101 75c0 35 -34 60 -86 60c-43 0 -84 -15 -120 -43l-27 41c37 33 95 60 158 60
c80 0 144 -42 144 -107c0 -42 -27 -84 -71 -106z" />
    <glyph glyph-name="onequarter" unicode="&#xbc;" horiz-adv-x="976" 
d="M64 288h114v313l-123 -13l-3 56l193 23v-379h94v-58h-275v58zM724 658h69l-496 -658h-69zM941 146v-54h-85v-92h-63v92h-223v50l227 288h59v-284h85zM793 146l3 203l-160 -203h157z" />
    <glyph glyph-name="onehalf" unicode="&#xbd;" horiz-adv-x="1002" 
d="M63 288h114v313l-123 -13l-3 56l193 23v-379h94v-58h-275v58zM727 658h69l-496 -658h-69zM725 56c60 3 130 4 232 4v-59l-318 -1v50c166 135 229 193 229 256c0 44 -30 71 -76 71c-41 0 -82 -20 -113 -54l-35 39c36 44 93 74 158 74c81 0 137 -48 137 -121
c0 -82 -70 -147 -214 -259z" />
    <glyph glyph-name="threequarters" unicode="&#xbe;" horiz-adv-x="988" 
d="M371 348c0 -76 -70 -126 -170 -126c-53 0 -106 14 -145 38v61c44 -29 93 -41 137 -41c64 0 107 25 107 72c0 46 -40 70 -115 70h-52v53h55c65 0 101 38 101 75c0 35 -34 60 -86 60c-43 0 -84 -15 -120 -43l-27 41c37 33 95 60 158 60c80 0 144 -42 144 -107
c0 -42 -27 -84 -71 -106c51 -18 84 -54 84 -107zM733 658h69l-496 -658h-69zM953 146v-54h-85v-92h-63v92h-223v50l227 288h59v-284h85zM805 146l3 203l-160 -203h157z" />
    <glyph glyph-name="dollar" unicode="$" 
d="M560 179c0 -108 -82 -173 -210 -179v-114h-64v116c-101 11 -189 55 -239 101l34 51c52 -46 126 -80 208 -89v234c-118 27 -218 62 -218 175c0 102 78 173 215 179v114h64v-117c77 -8 139 -37 182 -69v-75c-50 42 -110 73 -184 82v-227c111 -25 212 -63 212 -182zM138 482
c0 -69 66 -89 151 -108v217c-93 -4 -151 -44 -151 -109zM348 62c91 4 145 44 145 113c0 68 -54 90 -145 111v-224z" />
    <glyph glyph-name="cent" unicode="&#xa2;" 
d="M540 81c-43 -43 -98 -78 -168 -89v-116h-64l1 113c-130 8 -227 95 -227 235c0 141 97 242 226 259v111h64v-110c52 -5 100 -23 139 -53v-69c-37 33 -86 57 -142 62v-370c50 7 96 31 137 70zM153 229c0 -99 62 -167 158 -177v370c-95 -16 -158 -93 -158 -193z" />
    <glyph glyph-name="sterling" unicode="&#xa3;" 
d="M171 60c121 4 259 4 370 4l-1 -64h-455v48c56 51 99 123 98 225h-110v59h103c-14 55 -43 110 -43 172c0 93 70 166 188 166c83 0 162 -40 217 -83l-32 -49c-53 42 -115 68 -176 68c-80 0 -128 -40 -128 -109c0 -58 28 -106 41 -165h204v-59h-198c1 -97 -36 -166 -78 -213
z" />
    <glyph glyph-name="yen" unicode="&#xa5;" 
d="M612 658l-157 -219h112v-56h-152l-65 -92h217v-56h-226v-235h-72v235h-225v56h216l-65 92h-151v56h111l-157 219h85l225 -321l224 321h80z" />
    <glyph glyph-name="Euro" unicode="&#x20ac;" 
d="M563 158l37 -45c-60 -75 -140 -126 -246 -126c-141 0 -242 89 -271 236h-66v53h59c-1 13 -2 26 -2 40c0 22 1 43 4 64h-61v53h71c36 145 141 237 279 237c75 0 142 -27 194 -73v-77c-45 48 -110 85 -188 85c-104 0 -179 -64 -208 -172h323v-53h-333c-2 -18 -3 -37 -3 -57
c0 -16 1 -32 2 -47h304v-53h-295c26 -108 98 -169 199 -169c85 0 152 43 201 104z" />
    <glyph glyph-name="florin" unicode="&#x192;" 
d="M450 622c-87 0 -123 -39 -139 -131l-3 -18h195v-63h-205l-76 -449c-24 -133 -83 -191 -207 -191c-47 0 -102 12 -136 30l19 59c36 -17 75 -26 112 -26c87 0 123 39 139 131l76 446h-96v63h106l4 21c23 133 83 191 207 191c46 0 102 -13 136 -30l-20 -59
c-36 17 -75 26 -112 26z" />
    <glyph glyph-name="percent" unicode="%" horiz-adv-x="793" 
d="M195 302c-81 0 -147 63 -147 181c0 122 71 188 151 188c81 0 147 -63 147 -183s-71 -186 -151 -186zM112 0l495 658h69l-496 -658h-68zM196 353c54 0 91 52 91 132c0 84 -35 135 -89 135s-91 -53 -91 -134c0 -82 35 -133 89 -133zM594 -13c-81 0 -147 63 -147 182
c0 121 71 187 151 187c81 0 147 -63 147 -182c0 -121 -71 -187 -151 -187zM595 38c54 0 91 52 91 133c0 83 -35 134 -89 134s-91 -52 -91 -133c0 -83 35 -134 89 -134z" />
    <glyph glyph-name="perthousand" unicode="&#x2030;" horiz-adv-x="1136" 
d="M195 302c-81 0 -147 63 -147 181c0 122 71 188 151 188c81 0 147 -63 147 -183s-71 -186 -151 -186zM112 0l495 658h69l-496 -658h-68zM196 353c54 0 91 52 91 132c0 84 -35 135 -89 135s-91 -53 -91 -134c0 -82 35 -133 89 -133zM594 -13c-81 0 -147 63 -147 182
c0 121 71 187 151 187c81 0 147 -63 147 -182c0 -121 -71 -187 -151 -187zM943 -13c-80 0 -147 63 -147 182c0 121 71 187 151 187c81 0 147 -63 147 -182c0 -121 -71 -187 -151 -187zM595 38c54 0 91 52 91 133c0 83 -35 134 -89 134s-91 -52 -91 -133
c0 -83 35 -134 89 -134zM944 38c55 0 91 52 91 133c0 83 -35 134 -89 134s-91 -52 -91 -133c0 -83 35 -134 89 -134z" />
    <glyph glyph-name="plus" unicode="+" 
d="M547 336v-66h-207v-206h-70v206h-207v66h207v202h70v-202h207z" />
    <glyph glyph-name="minus" unicode="&#x2212;" 
d="M63 270v66h484v-66h-484z" />
    <glyph glyph-name="plusminus" unicode="&#xb1;" 
d="M340 341h207v-63h-207v-140h-70v140h-207v63h207v202h70v-202zM63 34v63h484v-63h-484z" />
    <glyph glyph-name="divide" unicode="&#xf7;" 
d="M305 435c-28 0 -50 22 -50 49c0 28 22 49 50 49s50 -21 50 -49c0 -27 -22 -49 -50 -49zM63 270v66h484v-66h-484zM305 68c-28 0 -50 22 -50 49c0 28 22 49 50 49s50 -21 50 -49c0 -27 -22 -49 -50 -49z" />
    <glyph glyph-name="multiply" unicode="&#xd7;" 
d="M516 469l-166 -166l166 -166l-45 -45l-166 166l-166 -166l-45 45l166 166l-166 166l45 46l166 -166l166 166z" />
    <glyph glyph-name="equal" unicode="=" 
d="M73 375v65h464v-65h-464zM73 166v65h464v-65h-464z" />
    <glyph glyph-name="less" unicode="&#x3c;" 
d="M483 537v-74l-323 -160l323 -160v-74l-400 209v51z" />
    <glyph glyph-name="greater" unicode="&#x3e;" 
d="M127 537l400 -208v-51l-400 -209v74l323 160l-323 160v74z" />
    <glyph glyph-name="lessequal" unicode="&#x2264;" 
d="M499 210v-68l-400 173v51l400 174v-68l-324 -131zM81 95h433v-61h-433v61z" />
    <glyph glyph-name="greaterequal" unicode="&#x2265;" 
d="M511 366v-51l-400 -173v68l324 131l-324 131v68zM96 95h433v-61h-433v61z" />
    <glyph glyph-name="approxequal" unicode="&#x2248;" 
d="M418 277c-86 0 -158 95 -222 95c-46 0 -71 -40 -79 -82l-51 18c8 52 42 125 127 125c86 0 157 -95 222 -95c46 0 71 40 79 82l51 -18c-8 -52 -42 -125 -127 -125zM418 86c-86 0 -158 95 -222 95c-46 0 -71 -40 -79 -82l-51 18c8 52 42 125 127 125c86 0 157 -95 222 -95
c46 0 71 40 79 82l51 -18c-8 -52 -42 -125 -127 -125z" />
    <glyph glyph-name="notequal" unicode="&#x2260;" 
d="M537 375h-167l-67 -144h234v-65h-264l-61 -130h-69l61 130h-131v65h161l67 144h-228v65h258l63 134h69l-63 -134h137v-65z" />
    <glyph glyph-name="logicalnot" unicode="&#xac;" 
d="M453 66v204h-383v66h453v-270h-70z" />
    <glyph glyph-name="partialdiff" unicode="&#x2202;" 
d="M294 669c153 0 251 -125 251 -319c0 -251 -128 -361 -279 -361c-128 0 -209 89 -209 208c0 139 104 238 238 238c75 0 137 -31 175 -83c-2 157 -72 254 -190 254c-42 0 -86 -11 -131 -30l-15 55c57 27 114 38 160 38zM272 53c99 0 177 67 195 225c-36 62 -100 96 -166 96
c-98 0 -169 -74 -169 -176c0 -82 51 -145 140 -145z" />
    <glyph glyph-name="product" unicode="&#x220f;" 
d="M558 658v-69h-72v-670h-72v670h-217v-670h-72v670h-72v69h505z" />
    <glyph glyph-name="summation" unicode="&#x2211;" 
d="M152 -10h394v-67h-475v59l196 308l-187 314v54h457v-63h-371l181 -301z" />
    <glyph glyph-name="radical" unicode="&#x221a;" 
d="M497 658h69l-238 -658h-83l-113 339l-25 -79l-51 14l39 121h91l105 -322z" />
    <glyph glyph-name="infinity" unicode="&#x221e;" 
d="M439 513c81 0 134 -77 134 -187c0 -109 -57 -187 -142 -187c-60 0 -102 38 -131 109c-25 -67 -69 -109 -128 -109c-82 0 -135 77 -135 186s57 188 142 188c63 0 104 -41 131 -110c26 68 69 110 129 110zM181 200c38 0 75 38 99 109c-23 97 -54 142 -99 142
s-78 -51 -78 -124s32 -127 78 -127zM429 200c45 0 79 51 79 125s-33 126 -79 126c-39 0 -75 -38 -99 -106c23 -99 54 -145 99 -145z" />
    <glyph glyph-name="integral" unicode="&#x222b;" 
d="M444 692c44 0 92 -13 123 -30l-17 -56c-37 17 -69 25 -102 25c-77 0 -117 -43 -114 -137l13 -505c5 -152 -82 -198 -182 -198c-44 0 -91 13 -122 30l16 56c37 -17 69 -25 103 -25c77 0 116 43 114 137l-14 505c-4 152 82 198 182 198z" />
    <glyph glyph-name="asciicircum" unicode="^" 
d="M512 420h-73l-134 176l-135 -176h-72l180 230h54z" />
    <glyph glyph-name="asciitilde" unicode="~" 
d="M419 181c-86 0 -158 95 -222 95c-46 0 -71 -40 -79 -82l-51 18c8 52 42 125 127 125c86 0 157 -95 222 -95c46 0 71 40 79 82l51 -18c-8 -52 -42 -125 -127 -125z" />
    <glyph glyph-name="degree" unicode="&#xb0;" horiz-adv-x="425" 
d="M213 353c-89 0 -158 69 -158 156c0 88 69 157 158 157c88 0 157 -69 157 -157c0 -87 -69 -156 -157 -156zM213 405c58 0 103 45 103 104c0 60 -45 105 -103 105c-59 0 -104 -45 -104 -105c0 -59 45 -104 104 -104z" />
    <glyph glyph-name="uni0394" unicode="&#x394;" horiz-adv-x="609" 
d="M337 658l237 -658h-539l237 658h65zM127 64h350l-175 490z" />
    <glyph glyph-name="uni03A9" unicode="&#x3a9;" horiz-adv-x="689" 
d="M486 65h136v-65h-230v53c98 72 137 192 137 304c0 150 -79 250 -188 250c-108 0 -180 -98 -180 -248c0 -113 37 -234 137 -306v-53h-231v65h138c-67 58 -121 154 -121 294c0 172 98 312 262 312c162 0 259 -136 259 -307c0 -138 -51 -239 -119 -299z" />
    <glyph glyph-name="pi" unicode="&#x3c0;" horiz-adv-x="586" 
d="M552 408h-89v-29c0 -193 11 -294 35 -379h-74c-19 85 -31 189 -31 372v36l-207 -1v-407h-70v407h-80v66h516v-65z" />
    <glyph glyph-name="uni00B5" unicode="&#xb5;" horiz-adv-x="647" 
d="M473 466l70 16v-482h-68v113c-46 -77 -115 -121 -187 -121c-43 0 -93 16 -122 57c5 -88 19 -165 46 -249h-75c-30 101 -41 224 -41 359v307l70 16v-281c0 -107 53 -147 123 -147s135 46 184 129v283z" />
    <glyph glyph-name="lozenge" unicode="&#x25ca;" 
d="M316 671l254 -341l-256 -343h-20l-254 342l254 342h22zM305 583l-188 -254l187 -254l189 255z" />
    <glyph glyph-name="grave" unicode="`" horiz-adv-x="243" 
d="M200 525l-171 125l43 51l157 -141z" />
    <glyph glyph-name="acute" unicode="&#xb4;" horiz-adv-x="243" 
d="M52 525l-30 35l157 141l43 -51z" />
    <glyph glyph-name="circumflex" unicode="&#x2c6;" horiz-adv-x="442" 
d="M368 559l-31 -34l-116 93l-117 -93l-30 34l125 124h44z" />
    <glyph glyph-name="caron" unicode="&#x2c7;" horiz-adv-x="442" 
d="M339 699l30 -34l-125 -124h-44l-125 124l31 34l116 -93z" />
    <glyph glyph-name="tilde" unicode="&#x2dc;" horiz-adv-x="398" 
d="M96 561l-41 16c6 38 28 87 81 87c51 0 89 -53 127 -53c21 0 35 21 42 50l41 -16c-6 -38 -27 -87 -78 -87c-52 0 -94 53 -129 53c-22 0 -36 -22 -43 -50z" />
    <glyph glyph-name="dieresis" unicode="&#xa8;" horiz-adv-x="460" 
d="M160 557c-25 0 -44 21 -44 45s19 45 44 45s45 -21 45 -45s-20 -45 -45 -45zM318 557c-24 0 -44 21 -44 45s20 45 44 45c27 0 45 -21 45 -45s-18 -45 -45 -45z" />
    <glyph glyph-name="ring" unicode="&#x2da;" horiz-adv-x="261" 
d="M228 620c0 -54 -45 -94 -98 -94s-97 40 -97 94s46 94 99 94c54 0 96 -40 96 -94zM131 565c32 0 51 23 51 55c0 31 -19 55 -51 55c-31 0 -53 -24 -53 -55s22 -55 53 -55z" />
    <glyph glyph-name="macron" unicode="&#xaf;" horiz-adv-x="423" 
d="M74 577v58h274v-58h-274z" />
    <glyph glyph-name="breve" unicode="&#x2d8;" horiz-adv-x="370" 
d="M185 536c-88 0 -137 64 -141 142h58c10 -58 38 -89 85 -89s76 31 86 89h52c-3 -78 -54 -142 -140 -142z" />
    <glyph glyph-name="dotaccent" unicode="&#x2d9;" horiz-adv-x="389" 
d="M194 555c-27 0 -49 25 -49 51c0 28 22 52 49 52c28 0 50 -24 50 -52c0 -26 -22 -51 -50 -51z" />
    <glyph glyph-name="hungarumlaut" unicode="&#x2dd;" horiz-adv-x="381" 
d="M68 525l-34 32l122 147l46 -43zM225 525l-33 32l122 147l46 -43z" />
    <glyph glyph-name="cedilla" unicode="&#xb8;" horiz-adv-x="336" 
d="M196 -47c45 0 79 -27 79 -70c0 -55 -45 -92 -119 -92c-39 0 -73 9 -93 20l14 39c16 -7 45 -17 79 -17c39 0 66 16 66 45c0 23 -20 35 -45 35c-20 0 -30 -2 -44 -7l-22 20l27 79h47l-23 -55c11 2 22 3 34 3z" />
    <glyph glyph-name="ogonek" unicode="&#x2db;" horiz-adv-x="326" 
d="M159 -201c-67 0 -103 37 -103 84c0 57 53 107 187 148l16 -36c-91 -28 -144 -64 -144 -104c0 -24 19 -43 53 -43c30 0 65 12 89 30l18 -38c-25 -20 -68 -41 -116 -41z" />
    <glyph glyph-name="a.ss01" horiz-adv-x="592" 
d="M312 486c131 0 195 -51 195 -167v-319h-68v89c-53 -59 -127 -102 -215 -102c-108 0 -181 64 -181 152s72 160 183 160c80 0 157 -38 212 -79v96c0 79 -41 110 -129 110c-75 0 -141 -18 -200 -41l-14 56c61 25 138 45 217 45zM235 44c77 0 151 45 206 116
c-58 48 -133 86 -205 86c-79 0 -122 -46 -122 -103c0 -58 46 -99 121 -99z" />
    <glyph glyph-name="aacute.ss01" horiz-adv-x="592" 
d="M413 650l-170 -125l-30 35l157 141zM312 486c131 0 195 -51 195 -167v-319h-68v89c-53 -59 -127 -102 -215 -102c-108 0 -181 64 -181 152s72 160 183 160c80 0 157 -38 212 -79v96c0 79 -41 110 -129 110c-75 0 -141 -18 -200 -41l-14 56c61 25 138 45 217 45zM235 44
c77 0 151 45 206 116c-58 48 -133 86 -205 86c-79 0 -122 -46 -122 -103c0 -58 46 -99 121 -99z" />
    <glyph glyph-name="acircumflex.ss01" horiz-adv-x="592" 
d="M292 618l-117 -93l-30 34l125 124h44l125 -124l-31 -34zM312 486c131 0 195 -51 195 -167v-319h-68v89c-53 -59 -127 -102 -215 -102c-108 0 -181 64 -181 152s72 160 183 160c80 0 157 -38 212 -79v96c0 79 -41 110 -129 110c-75 0 -141 -18 -200 -41l-14 56
c61 25 138 45 217 45zM235 44c77 0 151 45 206 116c-58 48 -133 86 -205 86c-79 0 -122 -46 -122 -103c0 -58 46 -99 121 -99z" />
    <glyph glyph-name="adieresis.ss01" horiz-adv-x="592" 
d="M213 557c-25 0 -44 21 -44 45s19 45 44 45s45 -21 45 -45s-20 -45 -45 -45zM371 557c-24 0 -44 21 -44 45s20 45 44 45c27 0 45 -21 45 -45s-18 -45 -45 -45zM312 486c131 0 195 -51 195 -167v-319h-68v89c-53 -59 -127 -102 -215 -102c-108 0 -181 64 -181 152
s72 160 183 160c80 0 157 -38 212 -79v96c0 79 -41 110 -129 110c-75 0 -141 -18 -200 -41l-14 56c61 25 138 45 217 45zM235 44c77 0 151 45 206 116c-58 48 -133 86 -205 86c-79 0 -122 -46 -122 -103c0 -58 46 -99 121 -99z" />
    <glyph glyph-name="agrave.ss01" horiz-adv-x="592" 
d="M372 560l-29 -35l-171 125l43 51zM312 486c131 0 195 -51 195 -167v-319h-68v89c-53 -59 -127 -102 -215 -102c-108 0 -181 64 -181 152s72 160 183 160c80 0 157 -38 212 -79v96c0 79 -41 110 -129 110c-75 0 -141 -18 -200 -41l-14 56c61 25 138 45 217 45zM235 44
c77 0 151 45 206 116c-58 48 -133 86 -205 86c-79 0 -122 -46 -122 -103c0 -58 46 -99 121 -99z" />
    <glyph glyph-name="aring.ss01" horiz-adv-x="592" 
d="M293 526c-53 0 -97 40 -97 94s46 94 99 94c54 0 96 -40 96 -94s-45 -94 -98 -94zM294 675c-31 0 -53 -24 -53 -55s22 -55 53 -55c32 0 51 23 51 55c0 31 -19 55 -51 55zM312 486c131 0 195 -51 195 -167v-319h-68v89c-53 -59 -127 -102 -215 -102
c-108 0 -181 64 -181 152s72 160 183 160c80 0 157 -38 212 -79v96c0 79 -41 110 -129 110c-75 0 -141 -18 -200 -41l-14 56c61 25 138 45 217 45zM235 44c77 0 151 45 206 116c-58 48 -133 86 -205 86c-79 0 -122 -46 -122 -103c0 -58 46 -99 121 -99z" />
    <glyph glyph-name="atilde.ss01" horiz-adv-x="592" 
d="M231 611c-22 0 -36 -22 -43 -50l-41 16c6 38 28 87 81 87c51 0 89 -53 127 -53c21 0 35 21 42 50l41 -16c-6 -38 -27 -87 -78 -87c-52 0 -94 53 -129 53zM312 486c131 0 195 -51 195 -167v-319h-68v89c-53 -59 -127 -102 -215 -102c-108 0 -181 64 -181 152
s72 160 183 160c80 0 157 -38 212 -79v96c0 79 -41 110 -129 110c-75 0 -141 -18 -200 -41l-14 56c61 25 138 45 217 45zM235 44c77 0 151 45 206 116c-58 48 -133 86 -205 86c-79 0 -122 -46 -122 -103c0 -58 46 -99 121 -99z" />
    <glyph glyph-name="uni2074" unicode="&#x2074;" horiz-adv-x="460" 
d="M412 376v-54h-85v-92h-63v92h-223v50l227 288h59v-284h85zM264 376l3 203l-160 -203h157z" />
    <glyph glyph-name="caron.ss01" horiz-adv-x="198" 
d="M72 540c1 27 5 105 5 158c1 22 12 32 28 32c14 0 27 -7 27 -29c0 -20 -12 -116 -21 -160c-2 -12 -8 -18 -19 -18c-9 0 -20 7 -20 17z" />
    </font>
</defs>
</svg>
